<svg width="186" height="50" fill="none" xmlns="http://www.w3.org/2000/svg"><path d="M34.617 32.922c-3.794 1.423-7.409 2.134-10.844 2.134h-1.546c-3.857-.219-7.027-1.478-9.51-3.776-2.466-2.315-3.864-5.38-4.192-9.195 0-.204-.015-.477-.047-.821a9.571 9.571 0 01-.046-.821c0-1.752.265-3.44.796-5.067a14.617 14.617 0 012.342-4.386 13.992 13.992 0 013.724-3.308c1.452-.891 3.06-1.509 4.825-1.853 2.061-.25 3.568-.375 4.52-.375 1.687 0 3.381.164 5.083.493 1.718.312 3.38.758 4.99 1.337a31.852 31.852 0 00-.868 6.145h-1.147c0-.704-.063-1.822-.188-3.354a16.272 16.272 0 00-4.333-2.158 14.542 14.542 0 00-4.497-.727c-2.014 0-3.856.477-5.527 1.43-1.671.939-2.99 2.338-3.959 4.2-.968 1.86-1.452 4.112-1.452 6.755 0 2.47.5 4.8 1.5 6.99 1.014 2.19 2.497 3.894 4.45 5.113a11.368 11.368 0 005.949 1.642c1.905 0 3.919-.414 6.043-1.243.124-1.814.187-3.159.187-4.034 0-1.095-.031-1.932-.094-2.51 0-.36-.086-.594-.258-.704-.156-.125-.452-.211-.89-.258-.702-.125-1.756-.188-3.162-.188V23.14c.469 0 1.21.032 2.226.094 1.015.063 1.772.094 2.272.094.328 0 .82-.016 1.475-.047.656-.031 1.312-.07 1.968-.117a33.673 33.673 0 011.546-.118v1.15c-.266.14-.516.266-.75.375a1.2 1.2 0 00-.492.422c-.11.157-.172.4-.187.728-.125 1.282-.188 2.244-.188 2.885 0 .656.032 1.36.094 2.11.078.751.14 1.486.187 2.206zM39.747 25.157c0-1.985.406-3.737 1.218-5.254a8.772 8.772 0 013.513-3.565c1.515-.845 3.264-1.267 5.247-1.267 1.42 0 2.701.227 3.84.68 1.14.454 2.109 1.103 2.905 1.947a8.442 8.442 0 011.85 3.003c.422 1.141.633 2.431.633 3.87 0 1.454-.25 2.83-.75 4.128a9.834 9.834 0 01-2.084 3.378c-.89.939-1.968 1.674-3.232 2.205-1.25.516-2.616.774-4.1.774-1.873 0-3.497-.422-4.871-1.266-1.374-.86-2.412-2.041-3.115-3.542-.703-1.517-1.054-3.214-1.054-5.09zm3.654-.867c0 2.345.53 4.488 1.592 6.427 1.062 1.923 2.74 2.885 5.036 2.885 1.765 0 3.084-.758 3.958-2.275.875-1.517 1.312-3.323 1.312-5.419 0-2.44-.476-4.613-1.429-6.52-.952-1.924-2.553-2.886-4.801-2.886-1.515 0-2.694.36-3.537 1.079-.827.704-1.39 1.626-1.686 2.768-.297 1.126-.445 2.44-.445 3.94zM62.373 25.157c0-1.985.406-3.737 1.218-5.254a8.772 8.772 0 013.513-3.565c1.514-.845 3.263-1.267 5.246-1.267 1.421 0 2.702.227 3.842.68 1.14.454 2.108 1.103 2.904 1.947a8.444 8.444 0 011.85 3.003c.422 1.141.633 2.431.633 3.87 0 1.454-.25 2.83-.75 4.128a9.834 9.834 0 01-2.084 3.378c-.89.939-1.968 1.674-3.233 2.205-1.249.516-2.615.774-4.099.774-1.873 0-3.497-.422-4.871-1.266-1.374-.86-2.413-2.041-3.115-3.542-.703-1.517-1.054-3.214-1.054-5.09zm3.653-.867c0 2.345.531 4.488 1.593 6.427 1.062 1.923 2.74 2.885 5.036 2.885 1.764 0 3.084-.758 3.958-2.275.875-1.517 1.312-3.323 1.312-5.419 0-2.44-.476-4.613-1.429-6.52-.952-1.924-2.553-2.886-4.801-2.886-1.515 0-2.694.36-3.537 1.079-.828.704-1.39 1.626-1.687 2.768-.296 1.126-.445 2.44-.445 3.94zM103.619 30.435c0 .595.055 1.08.164 1.455.125.375.328.656.609.844.281.188.57.313.866.375.297.047.867.118 1.71.211v1.15c-1.53-.125-2.678-.188-3.443-.188-.765 0-1.913.063-3.443.188v-3.566l-3.185 2.792c-.937.766-2.147 1.15-3.63 1.15-.5 0-1.078-.063-1.734-.188-1.405-.25-2.584-.83-3.537-1.736a8.288 8.288 0 01-2.108-3.26 12.028 12.028 0 01-.679-4.035c0-1.189.156-2.37.468-3.542.906-2.878 3.334-5.06 7.285-6.545.687-.25 1.522-.375 2.506-.375.828 0 1.64.102 2.436.305a8.778 8.778 0 012.178.844v-7.2c0-.767-.156-1.244-.468-1.432-.297-.203-.812-.305-1.546-.305h-.398a2.53 2.53 0 01-.328-.047 2.535 2.535 0 00-.445-.046v-1.15c2.545-.36 4.661-.813 6.347-1.36l.375.305v25.356zm-3.537-4.128v-6.45c-.562-.83-1.397-1.533-2.506-2.112-1.093-.578-2.178-.868-3.256-.868-.39 0-.648.04-.773.118-1.686.218-2.943 1.055-3.77 2.51-.813 1.454-1.219 3.111-1.219 4.972 0 .141.016.407.047.798.031.39.047.672.047.844.281 1.861 1.03 3.339 2.249 4.433 1.233 1.08 2.56 1.619 3.981 1.619 1.39 0 2.6-.516 3.63-1.548 1.047-1.048 1.57-2.486 1.57-4.316zM126.034 31.983l-.867 1.525a14.47 14.47 0 01-2.904 1.056c-.968.25-1.952.375-2.951.375-1.843 0-3.506-.414-4.989-1.243-1.249-.75-2.218-1.885-2.905-3.401a11.631 11.631 0 01-1.03-4.856c0-2.08.515-4.003 1.546-5.77.499-.845 1.436-1.69 2.81-2.534 1.39-.86 2.655-1.454 3.795-1.782a11.729 11.729 0 012.506-.282c1.624 0 3.256.383 4.895 1.15a36.076 36.076 0 00-.351 2.627 85.812 85.812 0 01-.234 2.556h-1.054c-.11-1.391-.282-2.306-.516-2.744-.234-.454-.921-.852-2.061-1.196-.906-.25-1.678-.376-2.319-.376-1.249 0-2.35.337-3.302 1.01-.953.672-1.577 1.649-1.874 2.931-.187.75-.281 1.673-.281 2.768 0 1.58.273 3.073.82 4.48.562 1.408 1.374 2.51 2.436 3.308a6.667 6.667 0 001.873.961 7.128 7.128 0 001.968.282c1.452 0 2.982-.383 4.591-1.15l.398.305zM132.053 29.38v-8.75c0-.938-.07-1.579-.211-1.923-.14-.344-.359-.547-.655-.61-.297-.078-1-.164-2.108-.258v-1.055c2.467-.313 4.544-.853 6.23-1.619l.585.282a43.842 43.842 0 00-.304 5.277v7.108c0 1.516.289 2.666.867 3.448.577.782 1.506 1.172 2.787 1.172 1.28 0 2.287-.242 3.021-.727.75-.484 1.437-1.173 2.061-2.064.328-.438.492-1.204.492-2.299v-7.506c0-.813-.156-1.352-.468-1.618-.312-.266-.797-.399-1.452-.399h-1.452v-1.055a42.757 42.757 0 003.536-.587 15.607 15.607 0 003.092-1.032l.468.188c-.125 2.44-.187 4.292-.187 5.559v9.336c.031 1 .125 1.696.281 2.087.156.391.398.634.726.727.344.079 1.093.165 2.249.258v1.15c-1.406-.125-2.46-.188-3.162-.188-.765 0-1.913.063-3.443.188v-3.354c-1.187 1-2.061 1.727-2.624 2.181a8.464 8.464 0 01-1.99 1.173c-.766.313-1.663.469-2.694.469-3.763 0-5.645-1.853-5.645-5.56zM158.005 41.953V20.63c0-1.157-.164-1.892-.492-2.204-.312-.329-.976-.493-1.991-.493h-.679v-1.15c2.014-.172 4.06-.68 6.137-1.524h.585l-.094 3.94a691.89 691.89 0 001.78-1.665 12.293 12.293 0 011.499-1.22 5.649 5.649 0 011.64-.774c.609-.187 1.335-.281 2.178-.281 1.234 0 2.358.203 3.373.61 1.031.406 1.897.97 2.6 1.689a7.45 7.45 0 011.616 2.51c.375.953.562 2.009.562 3.166 0 .313-.062.923-.187 1.83-.359 2.064-1.218 3.8-2.577 5.207-1.358 1.407-3.123 2.612-5.293 3.612-.999.516-2.022.774-3.068.774-1.203 0-2.546-.351-4.029-1.055v8.468l-.094.094c0 .735.118 1.25.352 1.548.25.313.538.492.866.54.328.046 1.039.085 2.132.116v1.15c-2.311-.125-4.169-.188-5.575-.188-1.03 0-2.498.063-4.403.188v-1.15h.679c.89 0 1.523-.156 1.897-.469.391-.297.586-.946.586-1.947zm3.56-13.629c0 1.11.172 1.9.515 2.37.359.468 1.109.898 2.249 1.29.952.375 1.819.562 2.6.562 1.155 0 2.186-.305 3.091-.915.922-.61 1.64-1.454 2.155-2.533.531-1.094.828-2.314.89-3.659v-.774c0-1.548-.289-2.83-.866-3.847-.578-1.016-1.328-1.767-2.249-2.252a6.386 6.386 0 00-3.021-.727c-.922 0-1.796.196-2.624.587a4.9 4.9 0 00-1.99 1.665c-.5.72-.75 1.54-.75 2.463v5.77z" fill="#333333"/><path d="M34.617 32.922c-3.794 1.423-7.409 2.134-10.844 2.134h-1.546c-3.857-.219-7.027-1.478-9.51-3.776-2.466-2.315-3.864-5.38-4.192-9.195 0-.204-.015-.477-.047-.821a9.571 9.571 0 01-.046-.821c0-1.752.265-3.44.796-5.067a14.617 14.617 0 012.342-4.386 13.992 13.992 0 013.724-3.308c1.452-.891 3.06-1.509 4.825-1.853 2.061-.25 3.568-.375 4.52-.375 1.687 0 3.381.164 5.083.493 1.718.312 3.38.758 4.99 1.337a31.852 31.852 0 00-.868 6.145h-1.147c0-.704-.063-1.822-.188-3.354a16.272 16.272 0 00-4.333-2.158 14.542 14.542 0 00-4.497-.727c-2.014 0-3.856.477-5.527 1.43-1.671.939-2.99 2.338-3.959 4.2-.968 1.86-1.452 4.112-1.452 6.755 0 2.47.5 4.8 1.5 6.99 1.014 2.19 2.497 3.894 4.45 5.113a11.368 11.368 0 005.949 1.642c1.905 0 3.919-.414 6.043-1.243.124-1.814.187-3.159.187-4.034 0-1.095-.031-1.932-.094-2.51 0-.36-.086-.594-.258-.704-.156-.125-.452-.211-.89-.258-.702-.125-1.756-.188-3.162-.188V23.14c.469 0 1.21.032 2.226.094 1.015.063 1.772.094 2.272.094.328 0 .82-.016 1.475-.047.656-.031 1.312-.07 1.968-.117a33.673 33.673 0 011.546-.118v1.15c-.266.14-.516.266-.75.375a1.2 1.2 0 00-.492.422c-.11.157-.172.4-.187.728-.125 1.282-.188 2.244-.188 2.885 0 .656.032 1.36.094 2.11.078.751.14 1.486.187 2.206zM39.747 25.157c0-1.985.406-3.737 1.218-5.254a8.772 8.772 0 013.513-3.565c1.515-.845 3.264-1.267 5.247-1.267 1.42 0 2.701.227 3.84.68 1.14.454 2.109 1.103 2.905 1.947a8.442 8.442 0 011.85 3.003c.422 1.141.633 2.431.633 3.87 0 1.454-.25 2.83-.75 4.128a9.834 9.834 0 01-2.084 3.378c-.89.939-1.968 1.674-3.232 2.205-1.25.516-2.616.774-4.1.774-1.873 0-3.497-.422-4.871-1.266-1.374-.86-2.412-2.041-3.115-3.542-.703-1.517-1.054-3.214-1.054-5.09zm3.654-.867c0 2.345.53 4.488 1.592 6.427 1.062 1.923 2.74 2.885 5.036 2.885 1.765 0 3.084-.758 3.958-2.275.875-1.517 1.312-3.323 1.312-5.419 0-2.44-.476-4.613-1.429-6.52-.952-1.924-2.553-2.886-4.801-2.886-1.515 0-2.694.36-3.537 1.079-.827.704-1.39 1.626-1.686 2.768-.297 1.126-.445 2.44-.445 3.94zM62.373 25.157c0-1.985.406-3.737 1.218-5.254a8.772 8.772 0 013.513-3.565c1.514-.845 3.263-1.267 5.246-1.267 1.421 0 2.702.227 3.842.68 1.14.454 2.108 1.103 2.904 1.947a8.444 8.444 0 011.85 3.003c.422 1.141.633 2.431.633 3.87 0 1.454-.25 2.83-.75 4.128a9.834 9.834 0 01-2.084 3.378c-.89.939-1.968 1.674-3.233 2.205-1.249.516-2.615.774-4.099.774-1.873 0-3.497-.422-4.871-1.266-1.374-.86-2.413-2.041-3.115-3.542-.703-1.517-1.054-3.214-1.054-5.09zm3.653-.867c0 2.345.531 4.488 1.593 6.427 1.062 1.923 2.74 2.885 5.036 2.885 1.764 0 3.084-.758 3.958-2.275.875-1.517 1.312-3.323 1.312-5.419 0-2.44-.476-4.613-1.429-6.52-.952-1.924-2.553-2.886-4.801-2.886-1.515 0-2.694.36-3.537 1.079-.828.704-1.39 1.626-1.687 2.768-.296 1.126-.445 2.44-.445 3.94zM103.619 30.435c0 .595.055 1.08.164 1.455.125.375.328.656.609.844.281.188.57.313.866.375.297.047.867.118 1.71.211v1.15c-1.53-.125-2.678-.188-3.443-.188-.765 0-1.913.063-3.443.188v-3.566l-3.185 2.792c-.937.766-2.147 1.15-3.63 1.15-.5 0-1.078-.063-1.734-.188-1.405-.25-2.584-.83-3.537-1.736a8.288 8.288 0 01-2.108-3.26 12.028 12.028 0 01-.679-4.035c0-1.189.156-2.37.468-3.542.906-2.878 3.334-5.06 7.285-6.545.687-.25 1.522-.375 2.506-.375.828 0 1.64.102 2.436.305a8.778 8.778 0 012.178.844v-7.2c0-.767-.156-1.244-.468-1.432-.297-.203-.812-.305-1.546-.305h-.398a2.53 2.53 0 01-.328-.047 2.535 2.535 0 00-.445-.046v-1.15c2.545-.36 4.661-.813 6.347-1.36l.375.305v25.356zm-3.537-4.128v-6.45c-.562-.83-1.397-1.533-2.506-2.112-1.093-.578-2.178-.868-3.256-.868-.39 0-.648.04-.773.118-1.686.218-2.943 1.055-3.77 2.51-.813 1.454-1.219 3.111-1.219 4.972 0 .141.016.407.047.798.031.39.047.672.047.844.281 1.861 1.03 3.339 2.249 4.433 1.233 1.08 2.56 1.619 3.981 1.619 1.39 0 2.6-.516 3.63-1.548 1.047-1.048 1.57-2.486 1.57-4.316zM126.034 31.983l-.867 1.525a14.47 14.47 0 01-2.904 1.056c-.968.25-1.952.375-2.951.375-1.843 0-3.506-.414-4.989-1.243-1.249-.75-2.218-1.885-2.905-3.401a11.631 11.631 0 01-1.03-4.856c0-2.08.515-4.003 1.546-5.77.499-.845 1.436-1.69 2.81-2.534 1.39-.86 2.655-1.454 3.795-1.782a11.729 11.729 0 012.506-.282c1.624 0 3.256.383 4.895 1.15a36.076 36.076 0 00-.351 2.627 85.812 85.812 0 01-.234 2.556h-1.054c-.11-1.391-.282-2.306-.516-2.744-.234-.454-.921-.852-2.061-1.196-.906-.25-1.678-.376-2.319-.376-1.249 0-2.35.337-3.302 1.01-.953.672-1.577 1.649-1.874 2.931-.187.75-.281 1.673-.281 2.768 0 1.58.273 3.073.82 4.48.562 1.408 1.374 2.51 2.436 3.308a6.667 6.667 0 001.873.961 7.128 7.128 0 001.968.282c1.452 0 2.982-.383 4.591-1.15l.398.305zM132.053 29.38v-8.75c0-.938-.07-1.579-.211-1.923-.14-.344-.359-.547-.655-.61-.297-.078-1-.164-2.108-.258v-1.055c2.467-.313 4.544-.853 6.23-1.619l.585.282a43.842 43.842 0 00-.304 5.277v7.108c0 1.516.289 2.666.867 3.448.577.782 1.506 1.172 2.787 1.172 1.28 0 2.287-.242 3.021-.727.75-.484 1.437-1.173 2.061-2.064.328-.438.492-1.204.492-2.299v-7.506c0-.813-.156-1.352-.468-1.618-.312-.266-.797-.399-1.452-.399h-1.452v-1.055a42.757 42.757 0 003.536-.587 15.607 15.607 0 003.092-1.032l.468.188c-.125 2.44-.187 4.292-.187 5.559v9.336c.031 1 .125 1.696.281 2.087.156.391.398.634.726.727.344.079 1.093.165 2.249.258v1.15c-1.406-.125-2.46-.188-3.162-.188-.765 0-1.913.063-3.443.188v-3.354c-1.187 1-2.061 1.727-2.624 2.181a8.464 8.464 0 01-1.99 1.173c-.766.313-1.663.469-2.694.469-3.763 0-5.645-1.853-5.645-5.56zM158.005 41.953V20.63c0-1.157-.164-1.892-.492-2.204-.312-.329-.976-.493-1.991-.493h-.679v-1.15c2.014-.172 4.06-.68 6.137-1.524h.585l-.094 3.94a691.89 691.89 0 001.78-1.665 12.293 12.293 0 011.499-1.22 5.649 5.649 0 011.64-.774c.609-.187 1.335-.281 2.178-.281 1.234 0 2.358.203 3.373.61 1.031.406 1.897.97 2.6 1.689a7.45 7.45 0 011.616 2.51c.375.953.562 2.009.562 3.166 0 .313-.062.923-.187 1.83-.359 2.064-1.218 3.8-2.577 5.207-1.358 1.407-3.123 2.612-5.293 3.612-.999.516-2.022.774-3.068.774-1.203 0-2.546-.351-4.029-1.055v8.468l-.094.094c0 .735.118 1.25.352 1.548.25.313.538.492.866.54.328.046 1.039.085 2.132.116v1.15c-2.311-.125-4.169-.188-5.575-.188-1.03 0-2.498.063-4.403.188v-1.15h.679c.89 0 1.523-.156 1.897-.469.391-.297.586-.946.586-1.947zm3.56-13.629c0 1.11.172 1.9.515 2.37.359.468 1.109.898 2.249 1.29.952.375 1.819.562 2.6.562 1.155 0 2.186-.305 3.091-.915.922-.61 1.64-1.454 2.155-2.533.531-1.094.828-2.314.89-3.659v-.774c0-1.548-.289-2.83-.866-3.847-.578-1.016-1.328-1.767-2.249-2.252a6.386 6.386 0 00-3.021-.727c-.922 0-1.796.196-2.624.587a4.9 4.9 0 00-1.99 1.665c-.5.72-.75 1.54-.75 2.463v5.77z" stroke="#333333" stroke-miterlimit="10"/></svg>