<svg width="80" height="80" viewBox="0 0 80 80" fill="none" xmlns="http://www.w3.org/2000/svg">
<path fill-rule="evenodd" clip-rule="evenodd" d="M44.596 17.683C44.3375 18.046 38.4354 28.331 36.8479 31.0985C36.7439 31.2785 36.573 31.41 36.372 31.464C36.1715 31.518 35.9574 31.4895 35.7774 31.386C34.0789 30.405 29.6674 27.858 27.9629 26.8745C27.7819 26.7695 27.6499 26.597 27.5969 26.3945C27.5439 26.192 27.5739 25.977 27.6804 25.7965C28.9659 23.6235 32.9919 16.817 34.8649 13.6505C35.4699 12.6275 36.5705 12 37.759 12C39.7815 12 42.9685 12 45.1245 12C46.768 12 48.3475 12.6375 49.531 13.7785C49.86 14.0965 50.0529 14.3345 49.9179 14.357C47.7414 14.7135 45.8535 15.9335 44.618 17.6525L44.613 17.6535L44.596 17.683Z" stroke="white" stroke-miterlimit="1.5" stroke-linecap="round" stroke-linejoin="round"/>
<path d="M41.7273 22.796L47.1164 32.1303L56.9047 26.479L49.9642 14.4579" stroke="white" stroke-miterlimit="1.5" stroke-linecap="round" stroke-linejoin="round"/>
<path d="M56.901 26.4796L59.4017 25.0359L54.983 34.4598L44.6124 33.5745L47.113 32.1307" stroke="white" stroke-miterlimit="1.5" stroke-linecap="round" stroke-linejoin="round"/>
<path fill-rule="evenodd" clip-rule="evenodd" d="M61.632 55.9667C61.4469 55.5613 55.4908 45.3075 53.8878 42.549C53.784 42.3689 53.7556 42.1551 53.8093 41.954C53.8628 41.7534 53.9945 41.5823 54.1741 41.4781C55.8729 40.4977 60.2844 37.9507 61.9884 36.9663C62.1699 36.8621 62.3853 36.834 62.5871 36.8894C62.789 36.9447 62.9602 37.0782 63.0633 37.2607C64.3024 39.4605 68.184 46.3503 69.9898 49.5556C70.5732 50.5911 70.5664 51.8579 69.9721 52.8872C68.9609 54.6387 67.3674 57.3987 66.2894 59.2659C65.4676 60.6892 64.1258 61.7383 62.5459 62.1928C62.106 62.3187 61.8034 62.3668 61.8514 62.2387C62.6309 60.1755 62.5184 57.9305 61.6474 56.001L61.649 55.9962L61.632 55.9667Z" stroke="white" stroke-miterlimit="1.5" stroke-linecap="round" stroke-linejoin="round"/>
<path d="M58.6384 50.926L47.8602 50.926L47.8602 62.2285L61.741 62.2285" stroke="white" stroke-miterlimit="1.5" stroke-linecap="round" stroke-linejoin="round"/>
<path d="M47.8613 62.3128L47.8613 65.1123L41.9093 56.5736L47.8613 48.035L47.8613 50.9225" stroke="white" stroke-miterlimit="1.5" stroke-linecap="round" stroke-linejoin="round"/>
<path fill-rule="evenodd" clip-rule="evenodd" d="M18.966 51.8405C19.4096 51.8829 31.2676 51.8517 34.4581 51.8428C34.666 51.8428 34.8654 51.9252 35.0127 52.0722C35.1597 52.2189 35.242 52.4185 35.2424 52.6261C35.242 54.5875 35.242 59.6815 35.2425 61.6494C35.2421 61.8587 35.1587 62.0592 35.0098 62.2064C34.861 62.3535 34.6598 62.435 34.4502 62.4331C31.9256 62.4063 24.018 62.3229 20.3392 62.2841C19.1508 62.2717 18.0571 61.6323 17.4628 60.6031C16.4516 58.8515 14.8581 56.0915 13.7801 54.2243C12.9583 52.801 12.7207 51.1144 13.1171 49.519C13.228 49.075 13.3376 48.7889 13.4246 48.8946C14.8215 50.6012 16.8221 51.6263 18.9285 51.8367L18.9319 51.8406L18.966 51.8405Z" stroke="white" stroke-miterlimit="1.5" stroke-linecap="round" stroke-linejoin="round"/>
<path d="M24.8282 51.7683L30.2173 42.4341" stroke="white" stroke-miterlimit="1.5" stroke-linecap="round" stroke-linejoin="round"/>
<path d="M30.2173 42.434L20.4291 36.7827" stroke="white" stroke-miterlimit="1.5" stroke-linecap="round" stroke-linejoin="round"/>
<path d="M20.4291 36.7827L13.4887 48.8039" stroke="white" stroke-miterlimit="1.5" stroke-linecap="round" stroke-linejoin="round"/>
<path d="M20.4316 36.7859L17.9309 35.3421L28.3016 34.4568L32.7202 43.8807L30.2196 42.437" stroke="white" stroke-miterlimit="1.5" stroke-linecap="round" stroke-linejoin="round"/>
</svg>
