<svg width="80" height="80" viewBox="0 0 80 80" fill="none" xmlns="http://www.w3.org/2000/svg">
<path fill-rule="evenodd" clip-rule="evenodd" d="M39.352 13.6986C39.4407 13.4926 39.6462 13.3589 39.8738 13.3589C40.1015 13.3589 40.307 13.4926 40.3957 13.6986L45.649 25.877L59.0427 27.0304C59.2692 27.0497 59.4624 27.2009 59.5325 27.4139C59.6031 27.627 59.5371 27.8604 59.3655 28.0075L49.2184 36.6872L52.2431 49.5784C52.2939 49.7967 52.2075 50.0237 52.0237 50.1556C51.8398 50.287 51.5935 50.2975 51.3985 50.1825L39.8738 43.3683L28.3498 50.1825C28.1548 50.2975 27.9085 50.287 27.724 50.1556C27.5402 50.0237 27.4538 49.7967 27.5051 49.5784L30.5293 36.6872L20.3828 28.0075C20.2106 27.8604 20.1452 27.627 20.2153 27.4139C20.2853 27.2009 20.4785 27.0497 20.705 27.0304L34.0987 25.877L39.352 13.6986Z" stroke="white" stroke-miterlimit="1.5" stroke-linecap="round" stroke-linejoin="round"/>
<path d="M39.6704 49.9786L35.2782 53.7359L38.022 65.4298C38.0681 65.6278 37.9897 65.8338 37.823 65.9534C37.6562 66.0726 37.4327 66.0821 37.2559 65.9778L26.8015 59.7965L16.3477 65.9778C16.1708 66.0821 15.9474 66.0726 15.7801 65.9534C15.6133 65.8338 15.5349 65.6278 15.5815 65.4298L18.3248 53.7359L9.12062 45.8623C8.96442 45.7288 8.90512 45.517 8.96866 45.3238C9.0322 45.1305 9.20746 44.9934 9.4129 44.9759L21.5627 43.9296L23.7839 38.7803" stroke="white" stroke-miterlimit="1.5" stroke-linecap="round" stroke-linejoin="round"/>
<path d="M57.2064 36.9541L60.3439 44.2283L70.6568 45.1164C70.8311 45.1312 70.9799 45.2476 71.0338 45.4116C71.0882 45.5757 71.0374 45.7555 70.9053 45.8687L63.0923 52.5519L65.4212 62.4777C65.4604 62.6458 65.3938 62.8207 65.2523 62.9222C65.1107 63.0234 64.921 63.0315 64.7709 62.9429L55.8972 57.6962L47.0239 62.9429C46.8738 63.0315 46.6841 63.0234 46.5421 62.9222C46.4005 62.8207 46.334 62.6458 46.3736 62.4777L48.1587 54.8678" stroke="white" stroke-miterlimit="1.5" stroke-linecap="round" stroke-linejoin="round"/>
</svg>
