<svg width="80" height="80" viewBox="0 0 80 80" fill="none" xmlns="http://www.w3.org/2000/svg">
<path d="M53.594 22.5883C53.594 22.5883 53.2215 20.3158 52.931 18.5443C52.7365 17.3568 51.7105 16.4854 50.5075 16.4854C45.718 16.4854 33.982 16.4854 29.1925 16.4854C27.9895 16.4854 26.963 17.3568 26.7685 18.5443C26.4785 20.3158 26.106 22.5883 26.106 22.5883" stroke="white" stroke-miterlimit="1.5" stroke-linecap="round" stroke-linejoin="round"/>
<path d="M24.6398 29.4536L28.5577 63.6261H51.146L55.0639 29.4536H29.9093" stroke="white" stroke-miterlimit="1.5" stroke-linecap="round" stroke-linejoin="round"/>
<path d="M24.4895 29.4539H23.0665C22.683 29.4539 22.3205 29.2804 22.08 28.9819C21.8395 28.6829 21.747 28.2914 21.829 27.9169C22.107 26.6454 22.495 24.8684 22.7455 23.7229C22.89 23.0609 23.4765 22.5884 24.1545 22.5884C29.3405 22.5884 50.359 22.5884 55.5455 22.5884C56.2235 22.5884 56.8095 23.0609 56.9545 23.7229C57.2045 24.8684 57.593 26.6454 57.8705 27.9169C57.9525 28.2914 57.8605 28.6829 57.62 28.9819C57.3795 29.2804 57.0165 29.4539 56.633 29.4539C55.7865 29.4539 54.9135 29.4539 54.9135 29.4539" stroke="white" stroke-miterlimit="1.5" stroke-linecap="round" stroke-linejoin="round"/>
<path d="M39.8499 52.9436C44.6387 52.9436 48.5208 49.0614 48.5208 44.2726C48.5208 39.4837 44.6387 35.6016 39.8499 35.6016C35.061 35.6016 31.1788 39.4837 31.1788 44.2726C31.1788 49.0614 35.061 52.9436 39.8499 52.9436Z" stroke="white" stroke-miterlimit="1.5" stroke-linecap="round" stroke-linejoin="round"/>
</svg>
