<?xml version="1.0" encoding="utf-8"?><svg viewBox="0 0 80 80" xmlns="http://www.w3.org/2000/svg" xmlns:xlink="http://www.w3.org/1999/xlink"><style>:root>svg{display:none}:root>svg:target{display:block}</style><svg fill="none" viewBox="0 0 80 80" id="advantages1" xmlns="http://www.w3.org/2000/svg"><path d="M53.594 22.589l-.663-4.044a2.456 2.456 0 00-2.423-2.06H29.192c-1.203 0-2.229.872-2.424 2.06l-.662 4.044M24.64 29.454l3.918 34.172h22.588l3.918-34.172H29.909" stroke="#fff" stroke-miterlimit="1.5" stroke-linecap="round" stroke-linejoin="round"/><path d="M24.49 29.454h-1.423a1.267 1.267 0 01-1.238-1.537l.916-4.194a1.442 1.442 0 011.41-1.134h31.39c.678 0 1.264.472 1.41 1.134l.916 4.194a1.267 1.267 0 01-1.238 1.537h-1.72M39.85 52.944a8.671 8.671 0 100-17.342 8.671 8.671 0 000 17.342z" stroke="#fff" stroke-miterlimit="1.5" stroke-linecap="round" stroke-linejoin="round"/></svg><svg fill="none" viewBox="0 0 80 80" id="advantages2" xmlns="http://www.w3.org/2000/svg"><path clip-rule="evenodd" d="M44.596 17.683c-.258.363-6.16 10.648-7.748 13.416a.785.785 0 01-1.07.287c-1.7-.981-6.11-3.528-7.815-4.511a.785.785 0 01-.283-1.078l7.185-12.147A3.363 3.363 0 0137.759 12h7.365c1.644 0 3.223.637 4.407 1.778.329.319.522.556.387.579a8.16 8.16 0 00-5.3 3.296h-.005l-.017.03z" stroke="#fff" stroke-miterlimit="1.5" stroke-linecap="round" stroke-linejoin="round"/><path d="M41.727 22.796l5.39 9.334 9.788-5.651-6.94-12.021" stroke="#fff" stroke-miterlimit="1.5" stroke-linecap="round" stroke-linejoin="round"/><path d="M56.901 26.48l2.5-1.444-4.418 9.424-10.37-.886 2.5-1.443" stroke="#fff" stroke-miterlimit="1.5" stroke-linecap="round" stroke-linejoin="round"/><path clip-rule="evenodd" d="M61.632 55.967c-.185-.406-6.141-10.66-7.744-13.418a.785.785 0 01.286-1.07l7.814-4.512a.785.785 0 011.075.294l6.927 12.295a3.362 3.362 0 01-.018 3.331l-3.683 6.379a6.35 6.35 0 01-3.743 2.927c-.44.126-.743.174-.695.046A8.16 8.16 0 0061.647 56l.002-.005-.017-.03z" stroke="#fff" stroke-miterlimit="1.5" stroke-linecap="round" stroke-linejoin="round"/><path d="M58.638 50.926H47.86v11.302h13.881" stroke="#fff" stroke-miterlimit="1.5" stroke-linecap="round" stroke-linejoin="round"/><path d="M47.861 62.313v2.8l-5.952-8.54 5.952-8.538v2.888" stroke="#fff" stroke-miterlimit="1.5" stroke-linecap="round" stroke-linejoin="round"/><path clip-rule="evenodd" d="M18.966 51.84c.444.043 12.302.012 15.492.003a.785.785 0 01.784.783v9.024a.785.785 0 01-.792.783l-14.11-.149a3.362 3.362 0 01-2.877-1.68l-3.683-6.38a6.349 6.349 0 01-.663-4.705c.111-.444.22-.73.308-.624a8.16 8.16 0 005.503 2.942l.004.004h.034z" stroke="#fff" stroke-miterlimit="1.5" stroke-linecap="round" stroke-linejoin="round"/><path d="M24.828 51.769l5.39-9.335M30.217 42.434l-9.788-5.65M20.43 36.783l-6.941 12.021M20.432 36.786l-2.501-1.444 10.37-.885 4.42 9.424-2.501-1.444" stroke="#fff" stroke-miterlimit="1.5" stroke-linecap="round" stroke-linejoin="round"/></svg><svg fill="none" viewBox="0 0 80 80" id="advantages3" xmlns="http://www.w3.org/2000/svg"><path clip-rule="evenodd" d="M39.352 13.699a.567.567 0 01.522-.34c.227 0 .433.134.522.34l5.253 12.178 13.394 1.153c.226.02.42.17.49.384a.552.552 0 01-.168.593l-10.147 8.68 3.025 12.891a.555.555 0 01-.22.578.575.575 0 01-.625.026l-11.524-6.814-11.524 6.814a.577.577 0 01-.626-.026.554.554 0 01-.219-.578l3.024-12.89-10.146-8.68a.552.552 0 01-.168-.594.565.565 0 01.49-.384l13.394-1.153 5.253-12.178z" stroke="#fff" stroke-miterlimit="1.5" stroke-linecap="round" stroke-linejoin="round"/><path d="M39.67 49.979l-4.392 3.757 2.744 11.694a.504.504 0 01-.199.523.522.522 0 01-.567.025l-10.454-6.181-10.454 6.18a.523.523 0 01-.568-.024.502.502 0 01-.198-.523l2.743-11.694-9.204-7.874a.501.501 0 01-.152-.538.512.512 0 01.444-.348l12.15-1.046 2.22-5.15M57.206 36.954l3.138 7.274 10.313.888a.435.435 0 01.377.296.425.425 0 01-.129.457l-7.813 6.683 2.33 9.926a.427.427 0 01-.17.444.443.443 0 01-.481.02l-8.874-5.246-8.873 5.247a.444.444 0 01-.482-.02.426.426 0 01-.168-.445l1.785-7.61" stroke="#fff" stroke-miterlimit="1.5" stroke-linecap="round" stroke-linejoin="round"/></svg><svg fill="none" viewBox="0 0 12 6" id="arrow-down" xmlns="http://www.w3.org/2000/svg"><path d="M10.5.75L6 5.25 1.5.75" stroke="currentColor" stroke-width="1.5" stroke-linecap="round" stroke-linejoin="round"/></svg><svg fill="none" viewBox="0 0 7 12" id="arrow-left" xmlns="http://www.w3.org/2000/svg"><path d="M5.75 10.5L1.25 6l4.5-4.5" stroke="currentColor" stroke-width="1.5" stroke-linecap="round" stroke-linejoin="round"/></svg><svg fill="none" viewBox="0 0 6 11" id="arrow-right" xmlns="http://www.w3.org/2000/svg"><path d="M1 1l4.5 4.5L1 10" stroke="currentColor" stroke-width="1.5" stroke-linecap="round" stroke-linejoin="round"/></svg><svg fill="none" viewBox="0 0 12 6" id="arrow-up" xmlns="http://www.w3.org/2000/svg"><path d="M1.5 5.25L6 .75l4.5 4.5" stroke="currentColor" stroke-width="1.5" stroke-linecap="round" stroke-linejoin="round"/></svg><svg fill="none" viewBox="0 0 20 21" id="card_buy" xmlns="http://www.w3.org/2000/svg"><path d="M1.779 11.197c.537-2.688.806-4.03 1.693-4.896a4 4 0 01.53-.434c1.023-.7 2.393-.7 5.133-.7h1.703c2.739 0 4.108 0 5.13.7.19.13.367.276.53.435.887.865 1.157 2.208 1.694 4.895.771 3.856 1.157 5.784.269 7.15-.16.249-.347.476-.56.683-1.166 1.137-3.131 1.137-7.063 1.137H9.135c-3.933 0-5.899 0-7.065-1.138a4.001 4.001 0 01-.559-.683c-.888-1.366-.502-3.294.27-7.15l-.002.001z" stroke="#fff"/><path d="M6.985 5.167v-1a3 3 0 016 0v1M7.155 8.167a3.001 3.001 0 005.66 0" stroke="#fff" stroke-linecap="round"/></svg><svg fill="none" viewBox="0 0 25 24" id="cart" xmlns="http://www.w3.org/2000/svg"><path d="M4.294 12.03C4.831 9.342 5.1 8 5.987 7.134a4 4 0 01.53-.434C7.54 6 8.91 6 11.65 6h1.703c2.739 0 4.108 0 5.13.7.19.13.367.276.53.435.887.865 1.157 2.208 1.694 4.895.771 3.856 1.157 5.784.269 7.15-.16.249-.347.476-.56.683C19.25 21 17.285 21 13.353 21H11.65c-3.933 0-5.899 0-7.065-1.138a4.002 4.002 0 01-.559-.683c-.888-1.366-.502-3.294.27-7.15l-.002.001z" stroke="#28A745"/><path d="M9.5 6V5a3 3 0 116 0v1M9.67 9a3 3 0 005.66 0" stroke="#28A745" stroke-linecap="round"/></svg><svg fill="none" viewBox="0 0 46 46" id="catalog_E" xmlns="http://www.w3.org/2000/svg"><rect width="46" height="46" rx="15" fill="#28A745"/><path d="M15 18h16m-16 5h16m-16 5h16" stroke="#fff" stroke-linecap="round"/></svg><svg fill="none" viewBox="0 0 42 42" id="catalog_x" xmlns="http://www.w3.org/2000/svg"><rect width="42" height="42" rx="15" fill="#28A745"/><path d="M15 15l12 12m-12 0l12-12" stroke="#fff" stroke-linecap="round"/></svg><svg fill="none" viewBox="0 0 15 15" id="clock" xmlns="http://www.w3.org/2000/svg"><path d="M10 10L8 8V4" stroke="#28A745" stroke-miterlimit="10" stroke-linecap="round"/><path d="M8 14A6 6 0 108 2a6 6 0 000 12z" stroke="#28A745" stroke-linecap="round" stroke-linejoin="round"/></svg><svg fill="none" viewBox="0 0 18 18" id="close" xmlns="http://www.w3.org/2000/svg"><path d="M1 1l8 8m8 8L9 9m8-8L9 9m-8 8l8-8" stroke="currentColor" stroke-width="1.5" stroke-linecap="round"/></svg><svg fill="none" viewBox="0 0 20 21" id="diameter" xmlns="http://www.w3.org/2000/svg"><g clip-path="url(#anclip0_233_3021)" stroke="#28A745" stroke-miterlimit="1.5" stroke-linecap="round" stroke-linejoin="round"><path d="M13.002 1.85c3.552 1.252 6.1 4.64 6.1 8.618 0 5.042-4.092 9.135-9.134 9.135M6.727 19.01C3.283 17.701.833 14.368.833 10.468c0-5.042 4.094-9.135 9.135-9.135"/><path d="M5.497 11.34v3.444M9.064 14.784H5.497M14.44 9.595V6.152M10.872 6.152h3.567" stroke-width=".995"/><path d="M14.44 6.152l-8.943 8.632" stroke-width=".731"/></g><defs><clipPath id="anclip0_233_3021"><path fill="#fff" transform="translate(0 .5)" d="M0 0h20v20H0z"/></clipPath></defs></svg><svg fill="none" viewBox="0 0 18 18" id="download" xmlns="http://www.w3.org/2000/svg"><path d="M5 15h9M9.5 3v9m0 0l2.625-2.625M9.5 12L6.875 9.375" stroke="currentColor" stroke-linecap="round" stroke-linejoin="round"/></svg><svg fill="none" viewBox="0 0 16 17" id="filter" xmlns="http://www.w3.org/2000/svg"><circle cx="12" cy="6.465" r="2.833" stroke="#fff"/><path d="M12 3.132v-2M12 16.465V9.8" stroke="#fff" stroke-linecap="round"/><circle cx="4" cy="11.132" r="2.833" stroke="#fff"/><path d="M4 7.799V1.132M4 16.465v-2" stroke="#fff" stroke-linecap="round"/></svg><svg fill="none" viewBox="0 0 25 24" id="heart" xmlns="http://www.w3.org/2000/svg"><path d="M7.75 3C5.127 3 3 5.113 3 7.719c0 2.104.831 7.097 9.014 12.145a.938.938 0 00.972 0C21.17 14.816 22 9.823 22 7.719 22 5.113 19.873 3 17.25 3S12.5 5.86 12.5 5.86 10.373 3 7.75 3z" stroke="#28A745" stroke-linecap="round" stroke-linejoin="round"/></svg><svg fill="none" viewBox="0 0 40 40" id="icon_menu1" xmlns="http://www.w3.org/2000/svg"><rect width="40" height="40" rx="20" fill="#fff"/><path clip-rule="evenodd" d="M29.718 11.184a.928.928 0 00-.928-.929H11.229a.929.929 0 00-.93.929v1.238a.929.929 0 00.93.929h17.56a.929.929 0 00.93-.929v-1.238z" stroke="#717171" stroke-miterlimit="1.5" stroke-linecap="round" stroke-linejoin="round"/><path d="M27.383 10.255l-1.34-2.05A1.557 1.557 0 0024.74 7.5h-9.462c-.526 0-1.016.265-1.303.705l-1.34 2.05" stroke="#717171" stroke-miterlimit="1.5" stroke-linecap="round" stroke-linejoin="round"/><path clip-rule="evenodd" d="M28.21 13.379H11.808L13.68 31.24c.072.694.657 1.22 1.354 1.22h9.95c.696 0 1.28-.527 1.354-1.22.44-4.208 1.872-17.861 1.872-17.861z" stroke="#717171" stroke-miterlimit="1.5" stroke-linecap="round" stroke-linejoin="round"/></svg><svg fill="none" viewBox="0 0 40 40" id="icon_menu10" xmlns="http://www.w3.org/2000/svg"><rect width="40" height="40" rx="20" fill="#fff"/><path d="M10.722 9.1l1.24.47a2.938 2.938 0 001.928.052l.725-.23a2.937 2.937 0 011.832.017c.173.06.355.121.531.18.65.22 1.355.207 1.994-.038l.193-.074a2.936 2.936 0 011.984-.042l.5.168a2.937 2.937 0 001.944-.027l.27-.099a2.938 2.938 0 012.055.014l.161.061a2.939 2.939 0 002 .033l1.414-.485" stroke="#717171" stroke-miterlimit="1.5" stroke-linecap="round" stroke-linejoin="round"/><path d="M10.722 9.1l3.5 9.614h11.772l3.5-9.614M15.469 11.922l1.688 4.671M24.745 11.922l-1.689 4.671M20.107 11.922v4.671" stroke="#717171" stroke-miterlimit="1.5" stroke-linecap="round" stroke-linejoin="round"/><path clip-rule="evenodd" d="M32.906 20.904H7.1v8.105a1.97 1.97 0 001.97 1.97h21.866a1.97 1.97 0 001.97-1.97v-8.105z" stroke="#717171" stroke-miterlimit="1.5" stroke-linecap="round" stroke-linejoin="round"/><path d="M20.108 28.32c2.893 0 5.238-1.066 5.238-2.379s-2.345-2.378-5.238-2.378c-2.893 0-5.238 1.065-5.238 2.378 0 1.314 2.345 2.378 5.238 2.378zM13.486 16.823H12.1l-5 4.08h25.806l-5-4.08H26.74" stroke="#717171" stroke-miterlimit="1.5" stroke-linecap="round" stroke-linejoin="round"/></svg><svg fill="none" viewBox="0 0 40 40" id="icon_menu11" xmlns="http://www.w3.org/2000/svg"><rect width="40" height="40" rx="20" fill="#fff"/><path d="M21.063 11.273c3.34 0 6.047-1.27 6.047-2.837 0-1.566-2.707-2.836-6.047-2.836s-6.048 1.27-6.048 2.836c0 1.567 2.707 2.837 6.048 2.837z" stroke="#717171" stroke-miterlimit="1.5" stroke-linecap="round" stroke-linejoin="round"/><path d="M22.145 11.313c-3.747-.541-6.811.03-9.245 1.632v20.188c3.127-1.636 6.213-2.288 9.245-1.633" stroke="#717171" stroke-miterlimit="1.5" stroke-linecap="round" stroke-linejoin="round"/><path d="M27.11 8.436v20.14c0 1.566-2.71 2.845-6.047 2.845M15 11.8V8M21.062 9.294c1.01 0 1.828-.384 1.828-.858 0-.473-.818-.857-1.828-.857-1.01 0-1.829.384-1.829.857 0 .474.819.858 1.829.858z" stroke="#717171" stroke-miterlimit="1.5" stroke-linecap="round" stroke-linejoin="round"/></svg><svg fill="none" viewBox="0 0 40 40" id="icon_menu12" xmlns="http://www.w3.org/2000/svg"><rect width="40" height="40" rx="20" fill="#fff"/><path clip-rule="evenodd" d="M21.147 16.582l-2.464-4.197H8.664L6.2 16.582v17.199h14.947V16.582zM29.238 19.895l-1.898-.354-3.138 3.138.353 1.898 4.614 4.614 4.683-4.683-4.614-4.613z" stroke="#717171" stroke-miterlimit="1.5" stroke-linecap="round" stroke-linejoin="round"/><path d="M13.674 12.386s.015-7.663 8.204-5.931c2.625.555 3.842 2.708 3.784 4.876-.064 2.405-1.558 4.865-1.46 5.952.248 2.794 1.663 3.75 1.663 3.75M8.673 17.283h10.113" stroke="#717171" stroke-miterlimit="1.5" stroke-linecap="round" stroke-linejoin="round"/></svg><svg fill="none" viewBox="0 0 40 40" id="icon_menu13" xmlns="http://www.w3.org/2000/svg"><rect width="40" height="40" rx="20" fill="#fff"/><path clip-rule="evenodd" d="M28.027 6.9h-3.218v6.74l-9.482-.002V6.9h-3.276l-2.03 21.043a4.718 4.718 0 004.695 5.168h10.646a4.718 4.718 0 004.694-5.168L28.026 6.9z" stroke="#717171" stroke-miterlimit="1.5" stroke-linecap="round" stroke-linejoin="round"/><path d="M16.572 24.159l-1.593 2.977h6.144" stroke="#717171" stroke-miterlimit="1.5" stroke-linecap="round" stroke-linejoin="round"/><path d="M19.434 25.446l1.69 1.69-1.69 1.69M22.04 27.076l3.413.183-3.02-5.552" stroke="#717171" stroke-miterlimit="1.5" stroke-linecap="round" stroke-linejoin="round"/><path d="M21.74 24.013l.652-2.39 2.296.866M22.092 20.428l-1.847-2.698-3.02 5.552" stroke="#717171" stroke-miterlimit="1.5" stroke-linecap="round" stroke-linejoin="round"/><path d="M19.532 22.267l-2.297.867-.651-2.39" stroke="#717171" stroke-miterlimit="1.5" stroke-linecap="round" stroke-linejoin="round"/></svg><svg fill="none" viewBox="0 0 40 40" id="icon_menu14" xmlns="http://www.w3.org/2000/svg"><rect width="40" height="40" rx="20" fill="#fff"/><path d="M8.509 31.125a3.41 3.41 0 100-6.819 3.41 3.41 0 000 6.819z" stroke="#717171" stroke-miterlimit="1.5" stroke-linecap="round" stroke-linejoin="round"/><path d="M8.509 29.48a1.765 1.765 0 100-3.53 1.765 1.765 0 000 3.53z" stroke="#717171" stroke-miterlimit="1.5" stroke-linecap="round" stroke-linejoin="round"/><path d="M12.002 29.697l8.847-14.139c.467-.746.577-1.669.306-2.567-.272-.897-.903-1.695-1.754-2.218-.85-.523-1.852-.73-2.783-.572-.933.158-1.718.666-2.185 1.412L5.586 25.751" stroke="#717171" stroke-miterlimit="1.5" stroke-linecap="round" stroke-linejoin="round"/><path d="M8.509 31.124h15.58l10.848-16.08h-13.89" stroke="#717171" stroke-miterlimit="1.5" stroke-linecap="round" stroke-linejoin="round"/></svg><svg fill="none" viewBox="0 0 40 40" id="icon_menu15" xmlns="http://www.w3.org/2000/svg"><rect width="40" height="40" rx="20" fill="#fff"/><path d="M16.172 21.696h7.286M13.323 23.389l12.305 2.343.517-2.343" stroke="#717171" stroke-miterlimit="1.5" stroke-linecap="round" stroke-linejoin="round"/><path d="M13.323 23.389V9.977l13.339 12.495v.917" stroke="#717171" stroke-miterlimit="1.5" stroke-linecap="round" stroke-linejoin="round"/><path d="M26.662 22.473V9.976l-6.408 6.498" stroke="#717171" stroke-miterlimit="1.5" stroke-linecap="round" stroke-linejoin="round"/><path d="M13.323 9.977l.576-1.263a.836.836 0 01.93-.471.824.824 0 00.748-.225c.15-.148.325-.324.468-.467a.43.43 0 01.57-.035h0a.351.351 0 00.509-.083l.082-.125a.597.597 0 01.762-.207l.177.087c.24.117.521.107.751-.028l.59-.345a.835.835 0 011.092.22l.104.14a.622.622 0 00.764.189l.067-.032a.598.598 0 01.798.286h0a.556.556 0 00.685.289c.135-.047.285-.1.428-.148a.645.645 0 01.828.408.45.45 0 00.384.305l.282.025c.389.035.7.335.752.722a.832.832 0 00.703.715l.289.043M27.211 23.389h-14.51v9.893h14.51V23.39zM18.299 14.625v-1.591h2.807v2.522M16.333 12.764l2.499-1.396.323 1.665M19.733 13.034s.097-2.356 2.258-2.356 2.477 1.523 2.477 1.523" stroke="#717171" stroke-miterlimit="1.5" stroke-linecap="round" stroke-linejoin="round"/><path d="M23.25 10.899l.362-1.838 1.47.31-.314 2.485M21.48 10.678l-.375-1.617-1.372.296.622 2.01M14.91 11.439s.208-.836 1.422-.836c1.215 0 1.411 1.393 1.411 1.393" stroke="#717171" stroke-miterlimit="1.5" stroke-linecap="round" stroke-linejoin="round"/><path d="M14.634 11.095l-.188-2.034h1.557l.17 1.542M16.848 10.678l.056-1.91 1.163.113.123 2.975M18.121 9.306S19.133 8 20.98 8.54c1.846.54 1.8 2.137 1.8 2.137" stroke="#717171" stroke-miterlimit="1.5" stroke-linecap="round" stroke-linejoin="round"/></svg><svg fill="none" viewBox="0 0 40 40" id="icon_menu16" xmlns="http://www.w3.org/2000/svg"><rect width="40" height="40" rx="20" fill="#fff"/><path clip-rule="evenodd" d="M24.585 23.025h-9.123v6.25a1.845 1.845 0 001.845 1.845h5.433a1.846 1.846 0 001.845-1.845v-6.25z" stroke="#717171" stroke-miterlimit="1.5" stroke-linecap="round" stroke-linejoin="round"/><path clip-rule="evenodd" d="M15.3 34.944a3.198 3.198 0 01-3.197-3.198V20.532h0a3.501 3.501 0 003.502-3.501v-5.765h8.838v5.765a3.501 3.501 0 003.501 3.501v11.214a3.198 3.198 0 01-3.197 3.198h-9.446z" stroke="#717171" stroke-miterlimit="1.5" stroke-linecap="round" stroke-linejoin="round"/><path d="M12.104 20.532h-.954c-.708 0-1.282.574-1.282 1.283v.194c0 .626-.508 1.134-1.134 1.134h0A1.134 1.134 0 017.6 22.009v-7.173M27.944 20.532h.953c.709 0 1.283.574 1.283 1.283v.194c0 .626.508 1.134 1.134 1.134h0c.627 0 1.134-.508 1.134-1.134v-7.173" stroke="#717171" stroke-miterlimit="1.5" stroke-linecap="round" stroke-linejoin="round"/><path clip-rule="evenodd" d="M24.44 9.506A4.407 4.407 0 0020.034 5.1h0a4.407 4.407 0 00-4.407 4.406v1.76h8.813v-1.76z" stroke="#717171" stroke-miterlimit="1.5" stroke-linecap="round" stroke-linejoin="round"/></svg><svg fill="none" viewBox="0 0 40 40" id="icon_menu17" xmlns="http://www.w3.org/2000/svg"><rect width="40" height="40" rx="20" fill="#fff"/><path d="M8.509 31.125a3.41 3.41 0 100-6.819 3.41 3.41 0 000 6.819z" stroke="#717171" stroke-miterlimit="1.5" stroke-linecap="round" stroke-linejoin="round"/><path d="M8.509 29.48a1.765 1.765 0 100-3.53 1.765 1.765 0 000 3.53z" stroke="#717171" stroke-miterlimit="1.5" stroke-linecap="round" stroke-linejoin="round"/><path d="M12.002 29.697l8.847-14.139c.467-.746.577-1.669.306-2.567-.272-.897-.903-1.695-1.754-2.218-.85-.523-1.852-.73-2.783-.572-.933.158-1.718.666-2.185 1.412L5.586 25.751" stroke="#717171" stroke-miterlimit="1.5" stroke-linecap="round" stroke-linejoin="round"/><path d="M8.509 31.124h15.58l10.848-16.08h-13.89" stroke="#717171" stroke-miterlimit="1.5" stroke-linecap="round" stroke-linejoin="round"/><path d="M24.5 15.043s-.604.942-1.242 1.942a5.008 5.008 0 00-.316 4.822 5.007 5.007 0 01-.313 4.823 66872.34 66872.34 0 01-2.874 4.494" stroke="#717171" stroke-miterlimit="1.5" stroke-linecap="round" stroke-linejoin="round"/></svg><svg fill="none" viewBox="0 0 40 40" id="icon_menu18" xmlns="http://www.w3.org/2000/svg"><rect width="40" height="40" rx="20" fill="#fff"/><path d="M8.509 31.125a3.41 3.41 0 100-6.819 3.41 3.41 0 000 6.819z" stroke="#717171" stroke-miterlimit="1.5" stroke-linecap="round" stroke-linejoin="round"/><path d="M8.509 29.48a1.765 1.765 0 100-3.53 1.765 1.765 0 000 3.53z" stroke="#717171" stroke-miterlimit="1.5" stroke-linecap="round" stroke-linejoin="round"/><path d="M12.002 29.697l8.847-14.139c.467-.746.577-1.669.306-2.567-.272-.897-.903-1.695-1.754-2.218-.85-.523-1.852-.73-2.783-.572-.933.158-1.718.666-2.185 1.412L5.586 25.751" stroke="#717171" stroke-miterlimit="1.5" stroke-linecap="round" stroke-linejoin="round"/><path d="M8.509 31.124h15.58l10.848-16.08h-13.89M28.296 20.288l-3.321 5.192" stroke="#717171" stroke-miterlimit="1.5" stroke-linecap="round" stroke-linejoin="round"/></svg><svg fill="none" viewBox="0 0 40 40" id="icon_menu19" xmlns="http://www.w3.org/2000/svg"><rect width="40" height="40" rx="20" fill="#fff"/><path clip-rule="evenodd" d="M15.36 9.623a3.783 3.783 0 00-3.78-3.78 3.779 3.779 0 00-3.78 3.78v4.15a3.78 3.78 0 007.56 0v-4.15z" stroke="#717171" stroke-miterlimit="1.5" stroke-linecap="round" stroke-linejoin="round"/><path d="M10.295 17.31v15.764a1.284 1.284 0 002.57 0V17.31M19.525 17.31v15.764a1.284 1.284 0 002.57 0V17.31M19.948 5.843v8.178M22.111 5.843v8.178" stroke="#717171" stroke-miterlimit="1.5" stroke-linecap="round" stroke-linejoin="round"/><path d="M17.886 5.843v8.77a2.94 2.94 0 005.88 0v-8.77" stroke="#717171" stroke-miterlimit="1.5" stroke-linecap="round" stroke-linejoin="round"/><path clip-rule="evenodd" d="M32.142 9.825A4.224 4.224 0 0027.917 5.6v17.048h4.225V9.825zM30.487 22.648h-2.57v10.425a1.285 1.285 0 102.57 0V22.648z" stroke="#717171" stroke-miterlimit="1.5" stroke-linecap="round" stroke-linejoin="round"/></svg><svg fill="none" viewBox="0 0 40 40" id="icon_menu2" xmlns="http://www.w3.org/2000/svg"><rect width="40" height="40" rx="20" fill="#fff"/><path d="M20.026 30.826c5.965 0 10.8-4.836 10.8-10.8 0-5.966-4.835-10.8-10.8-10.8-5.965 0-10.8 4.834-10.8 10.8 0 5.964 4.835 10.8 10.8 10.8z" stroke="#717171" stroke-miterlimit="1.5" stroke-linecap="round" stroke-linejoin="round"/><path d="M20.026 32.65c6.972 0 12.625-5.652 12.625-12.625 0-6.972-5.653-12.625-12.625-12.625C13.053 7.4 7.4 13.053 7.4 20.025c0 6.973 5.653 12.626 12.626 12.626z" stroke="#717171" stroke-miterlimit="1.5" stroke-linecap="round" stroke-linejoin="round"/><path clip-rule="evenodd" d="M27.256 22.155a7.578 7.578 0 01-7.23 5.32 7.579 7.579 0 01-7.23-5.32h14.46zM21.49 29.018a.622.622 0 00-.623-.623h-1.682a.623.623 0 00-.622.623v.196a.622.622 0 00.622.622h1.682a.622.622 0 00.622-.622v-.196z" stroke="#717171" stroke-miterlimit="1.5" stroke-linecap="round" stroke-linejoin="round"/></svg><svg fill="none" viewBox="0 0 40 40" id="icon_menu20" xmlns="http://www.w3.org/2000/svg"><rect width="40" height="40" rx="20" fill="#fff"/><path clip-rule="evenodd" d="M12.99 9.68c-.098-.473-.415-.883-.88-1.14a2.397 2.397 0 00-1.6-.236c-.56.107-1.057.397-1.383.806-.327.41-.455.904-.356 1.377l1.84 8.838 2.465 1.307 1.754-2.114-1.84-8.839z" stroke="#717171" stroke-miterlimit="1.5" stroke-linecap="round" stroke-linejoin="round"/><path d="M13.426 20.564l2.968 11.078M9.558 13.162l3.518-.942M10.463 16.542l3.518-.943" stroke="#717171" stroke-miterlimit="1.5" stroke-linecap="round" stroke-linejoin="round"/><path clip-rule="evenodd" d="M26.945 9.68c.098-.473.414-.883.88-1.14a2.397 2.397 0 011.6-.236c.56.107 1.057.397 1.383.806.326.41.454.904.356 1.377l-1.84 8.838-2.465 1.307-1.754-2.114 1.84-8.839z" stroke="#717171" stroke-miterlimit="1.5" stroke-linecap="round" stroke-linejoin="round"/><path d="M26.509 20.564L23.54 31.642M30.377 13.162l-3.518-.942M29.472 16.542l-3.519-.943" stroke="#717171" stroke-miterlimit="1.5" stroke-linecap="round" stroke-linejoin="round"/><path clip-rule="evenodd" d="M21.788 9.783a1.821 1.821 0 10-3.643 0v9.05l1.821 1.751 1.822-1.752v-9.05z" stroke="#717171" stroke-miterlimit="1.5" stroke-linecap="round" stroke-linejoin="round"/><path d="M19.966 20.584v11.468M18.145 12.433h3.643M18.145 15.932h3.643" stroke="#717171" stroke-miterlimit="1.5" stroke-linecap="round" stroke-linejoin="round"/></svg><svg fill="none" viewBox="0 0 40 40" id="icon_menu21" xmlns="http://www.w3.org/2000/svg"><rect width="40" height="40" rx="20" fill="#fff"/><path d="M7.9 33.74h1.933a5.177 5.177 0 005.177-5.177v-4.747h0a6.585 6.585 0 01-6.585-6.585V6.257h8.446" stroke="#717171" stroke-miterlimit="1.5" stroke-linecap="round" stroke-linejoin="round"/><path d="M25.741 33.74H23.81a5.177 5.177 0 01-5.177-5.177v-4.747h0a6.585 6.585 0 006.584-6.585V6.257h-8.445M27.427 6.2v6.474M29.709 6.2v6.474M32.038 6.2v8.49a2.502 2.502 0 01-2.504 2.504V33.74" stroke="#717171" stroke-miterlimit="1.5" stroke-linecap="round" stroke-linejoin="round"/></svg><svg fill="none" viewBox="0 0 40 40" id="icon_menu22" xmlns="http://www.w3.org/2000/svg"><rect width="40" height="40" rx="20" fill="#fff"/><path clip-rule="evenodd" d="M34.967 19.464a.972.972 0 00-.972-.97H5.972a.972.972 0 00-.972.97v1.151a.97.97 0 00.972.972h28.023a.969.969 0 00.972-.972v-1.15zM30.297 12.8H9.67l-3 5.693h26.628l-3-5.693zM9.67 27.281h20.628l3-5.693H6.67l3 5.693z" stroke="#717171" stroke-miterlimit="1.5" stroke-linecap="round" stroke-linejoin="round"/><path clip-rule="evenodd" d="M16.032 23.768h7.903l1.149-2.18h-10.2l1.148 2.18z" stroke="#717171" stroke-miterlimit="1.5" stroke-linecap="round" stroke-linejoin="round"/></svg><svg fill="none" viewBox="0 0 40 40" id="icon_menu23" xmlns="http://www.w3.org/2000/svg"><rect width="40" height="40" rx="20" fill="#fff"/><path d="M28 8.4a5.815 5.815 0 00-5.811 5.81v2.978a5.542 5.542 0 005.174 5.53M29.163 22.537c2.341-.644 4.086-2.803 4.086-5.349V13.65a5.248 5.248 0 00-3.563-4.973" stroke="#717171" stroke-miterlimit="1.5" stroke-linecap="round" stroke-linejoin="round"/><path d="M28 8.4l-.501.787a8.035 8.035 0 00-.215 8.277 5.265 5.265 0 01.406 4.28l-.33.975" stroke="#717171" stroke-miterlimit="1.5" stroke-linecap="round" stroke-linejoin="round"/><path d="M29.686 8.685l-.398.603a7.775 7.775 0 00-.279 8.117 5.385 5.385 0 01.407 4.4c-.145.42-.25.732-.25.732M7.534 13.678c-.221 1.19.074 2.47.82 3.558a5.666 5.666 0 003.161 2.242l2.467.671c2.433.663 4.76-.56 5.327-2.749M19.812 15.778c-.204-1.948-1.736-3.774-3.83-4.342l-2.908-.79c-1.645-.446-3.23.029-4.189 1.1a3.56 3.56 0 00-.396.537" stroke="#717171" stroke-miterlimit="1.5" stroke-linecap="round" stroke-linejoin="round"/><path d="M7.79 13.679l.575.557c1.832 1.776 4.403 2.534 6.685 1.97 1.15-.283 2.432-.057 3.522.622l.749.466" stroke="#717171" stroke-miterlimit="1.5" stroke-linecap="round" stroke-linejoin="round"/><path d="M8.386 12.39l.438.437c1.774 1.772 4.304 2.54 6.547 1.985 1.184-.291 2.501-.056 3.62.647l.562.353M15.743 29.13a3.411 3.411 0 004.82 0l1.236-1.235a3.251 3.251 0 00.148-4.44M21.124 22.783a3.27 3.27 0 00-3.913.524l-1.468 1.468a3.078 3.078 0 00-.585 3.54" stroke="#717171" stroke-miterlimit="1.5" stroke-linecap="round" stroke-linejoin="round"/><path d="M15.743 29.13l.534-.119a4.714 4.714 0 003.523-3.344 3.088 3.088 0 011.607-1.944l.541-.267" stroke="#717171" stroke-miterlimit="1.5" stroke-linecap="round" stroke-linejoin="round"/><path d="M15.162 28.312l.415-.085a4.56 4.56 0 003.483-3.251 3.16 3.16 0 011.656-1.994c.235-.114.408-.2.408-.2" stroke="#717171" stroke-miterlimit="1.5" stroke-linecap="round" stroke-linejoin="round"/></svg><svg fill="none" viewBox="0 0 40 40" id="icon_menu24" xmlns="http://www.w3.org/2000/svg"><rect width="40" height="40" rx="20" fill="#fff"/><path d="M22.48 32.637H11.974A4.374 4.374 0 017.6 28.263h9.546v.1a4.275 4.275 0 004.276 4.274c3.206 0 5.806-2.6 5.806-5.807V7.4m0 0h1.02a4.188 4.188 0 014.189 4.188h-5.209V7.4zm0 0H15.973a2.803 2.803 0 00-2.803 2.803v18.06M15.719 13.869h8.97M15.719 17.233h8.97M15.719 20.598h8.97" stroke="#717171" stroke-miterlimit="1.5" stroke-linecap="round" stroke-linejoin="round"/></svg><svg fill="none" viewBox="0 0 40 40" id="icon_menu25" xmlns="http://www.w3.org/2000/svg"><rect width="40" height="40" rx="20" fill="#fff"/><path clip-rule="evenodd" d="M17.991 13.493a.75.75 0 00-.75-.75H4.35a.75.75 0 00-.75.75v.794c0 .414.335.75.75.75H17.24a.75.75 0 00.75-.75v-.794z" stroke="#717171" stroke-miterlimit="1.5" stroke-linecap="round" stroke-linejoin="round"/><path d="M16.26 12.743L15.3 11.27a1.258 1.258 0 00-1.053-.57h-6.9c-.425 0-.82.214-1.053.57l-.962 1.472M5.585 23.331l.512 4.883a1.1 1.1 0 001.094.985h7.21a1.1 1.1 0 001.094-.985l.512-4.885M16.28 20.721l.594-5.663H4.718l.593 5.66" stroke="#717171" stroke-miterlimit="1.5" stroke-linecap="round" stroke-linejoin="round"/><path clip-rule="evenodd" d="M36.378 13.493a.75.75 0 00-.75-.75H22.736a.75.75 0 00-.75.75v.794c0 .414.336.75.75.75h12.892a.75.75 0 00.75-.75v-.794z" stroke="#717171" stroke-miterlimit="1.5" stroke-linecap="round" stroke-linejoin="round"/><path d="M34.647 12.743l-.962-1.472a1.258 1.258 0 00-1.052-.57h-6.9c-.425 0-.821.214-1.053.57l-.962 1.472M23.968 23.3l.515 4.914a1.1 1.1 0 001.094.986h7.21a1.1 1.1 0 001.094-.986l.514-4.908M34.669 20.705l.592-5.647H23.104l.593 5.656" stroke="#717171" stroke-miterlimit="1.5" stroke-linecap="round" stroke-linejoin="round"/><path clip-rule="evenodd" d="M4.373 20.705v2.617h12.514L18.78 29.2h2.216l2.033-5.908H35.31v-2.587H4.373z" stroke="#717171" stroke-miterlimit="1.5" stroke-linecap="round" stroke-linejoin="round"/></svg><svg fill="none" viewBox="0 0 40 40" id="icon_menu26" xmlns="http://www.w3.org/2000/svg"><rect width="40" height="40" rx="20" fill="#fff"/><path clip-rule="evenodd" d="M17.596 13.155c-5.17 3.935-7.373 9.04-7.185 14.56a4.64 4.64 0 004.553 4.492c2.937.055 6.946.128 9.915.182a4.64 4.64 0 004.721-4.462c.221-5.515-1.832-10.622-6.578-14.624 1.47-1.857 1.98-3.715 1.869-5.572-1.074.176-2.012.547-2.787 1.155-2.002-.912-4.223-1.305-6.672-1.155-.17 2.222.564 4.024 2.164 5.424z" stroke="#717171" stroke-miterlimit="1.5" stroke-linecap="round" stroke-linejoin="round"/><path d="M22.104 8.886l1.111.575M18.12 9.787c.087 1.166.53 2.298 1.26 3.403M21.12 13.246c1.081 1.124 1.865 2.371 2.258 3.778M20.298 28.823a5.192 5.192 0 100-10.384 5.192 5.192 0 000 10.384z" stroke="#717171" stroke-miterlimit="1.5" stroke-linecap="round" stroke-linejoin="round"/><path d="M18.427 24.089l-.827 1.546h3.19" stroke="#717171" stroke-miterlimit="1.5" stroke-linecap="round" stroke-linejoin="round"/><path d="M19.913 24.758l.877.877-.877.877M21.24 25.603l1.799.1-1.532-2.887" stroke="#717171" stroke-miterlimit="1.5" stroke-linecap="round" stroke-linejoin="round"/><path d="M21.095 24.013l.362-1.243 1.185.455M21.303 22.15l-1.005-1.399-1.532 2.886" stroke="#717171" stroke-miterlimit="1.5" stroke-linecap="round" stroke-linejoin="round"/><path d="M19.964 23.104l-1.185.454-.362-1.242M23.038 13.293l-5.463-.15" stroke="#717171" stroke-miterlimit="1.5" stroke-linecap="round" stroke-linejoin="round"/></svg><svg fill="none" viewBox="0 0 40 40" id="icon_menu27" xmlns="http://www.w3.org/2000/svg"><rect width="40" height="40" rx="20" fill="#fff"/><path d="M26.678 28.66h-9.606v2.401h9.606V28.66z" stroke="#717171" stroke-miterlimit="1.5" stroke-linecap="round" stroke-linejoin="round"/><path d="M18.377 28.66s-.072-.116-.18-.295a7.66 7.66 0 01-1.125-3.994v-7.778a1.156 1.156 0 012.313 0v5.634-6.819a1.245 1.245 0 112.49 0v5.751-6.982a1.082 1.082 0 012.164 0v7.368-5.782a1.157 1.157 0 012.313 0v8.02l.481-1.479a1.443 1.443 0 011.884-.905h.001a.884.884 0 01.531 1.088l-.564 1.826a7.105 7.105 0 01-2.057 3.201l-1.284 1.146" stroke="#717171" stroke-miterlimit="1.5" stroke-linecap="round" stroke-linejoin="round"/><path d="M17.109 28.579l-1.964.333-2.928-16.714L29.289 8.9l2.846 16.566-4.612 1.149M12.374 13.095c-1.865.524-3.421 1.427-4.574 2.821M13.797 21.93c-.991.278-1.894.664-2.697 1.173a7.942 7.942 0 00-1.877 1.648" stroke="#717171" stroke-miterlimit="1.5" stroke-linecap="round" stroke-linejoin="round"/><path d="M13.026 16.677a6.33 6.33 0 00-1.526.556c-.4.213-.756.472-1.062.782M10.11 18.413c-.116.072-.218.152-.305.24-.075.078-.139.162-.188.253M8.8 25.306c-.079.106-.143.214-.188.323-.04.097-.066.195-.075.294M14.66 27.184c-1.178.382-2.251.912-3.206 1.612-.84.618-1.59 1.368-2.231 2.266" stroke="#717171" stroke-miterlimit="1.5" stroke-linecap="round" stroke-linejoin="round"/></svg><svg fill="none" viewBox="0 0 40 40" id="icon_menu28" xmlns="http://www.w3.org/2000/svg"><rect width="40" height="40" rx="20" fill="#fff"/><path clip-rule="evenodd" d="M26.432 15.106a4.104 4.104 0 00-3.89-2.798H14.33a3.038 3.038 0 00-3.037 3.038v15.986a2.468 2.468 0 002.468 2.468h12.571a2.468 2.468 0 002.468-2.468v-6.387c0-1.847-.3-3.682-.888-5.433l-1.48-4.406z" stroke="#717171" stroke-miterlimit="1.5" stroke-linecap="round" stroke-linejoin="round"/><path clip-rule="evenodd" d="M17.693 16.443a2.02 2.02 0 00-2.02-2.02h0a2.018 2.018 0 00-2.02 2.02v7.797a.756.756 0 00.756.756h.665a.756.756 0 00.637-.35l1.864-2.926a.75.75 0 00.118-.405v-4.872z" stroke="#717171" stroke-miterlimit="1.5" stroke-linecap="round" stroke-linejoin="round"/><path d="M15.415 12.28v-.825c0-.545.442-.986.986-.986h5.14c.544 0 .985.441.985.986v1.034" stroke="#717171" stroke-miterlimit="1.5" stroke-linecap="round" stroke-linejoin="round"/><path clip-rule="evenodd" d="M20.544 6.694a.574.574 0 00-.569-.501h-2.008a.574.574 0 00-.57.5l-.486 3.776h4.12l-.486-3.775z" stroke="#717171" stroke-miterlimit="1.5" stroke-linecap="round" stroke-linejoin="round"/></svg><svg fill="none" viewBox="0 0 40 40" id="icon_menu3" xmlns="http://www.w3.org/2000/svg"><rect width="40" height="40" rx="20" fill="#fff"/><path d="M19.23 16.297L8.458 27.067M14.662 33.27l10.77-10.77M8.47 27.056l.06 1.342c.003.081.068.146.148.15l1.2.053c.08.003.145.068.149.149l.053 1.2c.004.08.069.144.15.148l1.199.053c.08.004.145.069.149.15l.053 1.199c.004.08.068.145.149.149l1.2.053c.08.004.145.068.148.149l.054 1.2c.003.08.068.145.149.148l1.342.06M25.433 22.5l-.06-1.343a.156.156 0 00-.15-.148l-1.199-.054a.156.156 0 01-.148-.149l-.054-1.2a.156.156 0 00-.149-.148l-1.2-.054a.156.156 0 01-.148-.148l-.054-1.2a.156.156 0 00-.149-.149l-1.2-.053a.156.156 0 01-.148-.15l-.053-1.199a.156.156 0 00-.15-.149l-1.341-.06M10.002 25.525l6.203 6.203M11.573 23.953l6.203 6.203M29.917 16.627l1.97-7.356M23.414 7l-1.971 7.357M31.916 9.286l-.758-1.261c-.046-.076-.135-.098-.205-.051l-1.04.699c-.07.047-.158.025-.204-.05l-.678-1.128c-.046-.076-.134-.098-.204-.05-.246.165-.795.533-1.04.699-.07.047-.159.025-.205-.051l-.678-1.127c-.046-.076-.134-.098-.204-.051l-1.04.699c-.07.047-.159.025-.204-.05l-.678-1.128c-.046-.076-.135-.098-.205-.05l-1.164.782M21.41 14.357l.759 1.26c.045.076.134.098.204.051l1.04-.699c.07-.047.159-.025.204.051l.678 1.127c.046.076.134.098.204.051l1.04-.7c.07-.046.16-.024.205.052l.678 1.127c.046.075.134.097.204.05l1.04-.699c.07-.047.159-.025.205.051l.678 1.127c.045.076.134.098.204.051l1.164-.782M31.322 11.378l-8.473-2.27M30.747 13.525l-8.473-2.27" stroke="#717171" stroke-miterlimit="1.5" stroke-linecap="round" stroke-linejoin="round"/></svg><svg fill="none" viewBox="0 0 40 40" id="icon_menu4" xmlns="http://www.w3.org/2000/svg"><rect width="40" height="40" rx="20" fill="#fff"/><path clip-rule="evenodd" d="M20 21.314l1.883-1.188.372 3.76 2.375-.558-.95 2.127 2.372 1.715-2.91 1.322.786 1.527h-7.856l.784-1.527-2.909-1.322 2.373-1.715-.95-2.127 2.375.558.371-3.76L20 21.314z" stroke="#717171" stroke-miterlimit="1.5" stroke-linecap="round" stroke-linejoin="round"/><path d="M24.512 3.6h-9.026v6.807h9.026V3.6zM15.451 7.003h9.097" stroke="#717171" stroke-miterlimit="1.5" stroke-linecap="round" stroke-linejoin="round"/><path clip-rule="evenodd" d="M12.594 36.46S10.3 32.753 10.3 27.17s1.912-7.95 4.293-11.995c1.034-1.757 1.7-4.768 1.7-4.768h7.412s.667 3.011 1.7 4.768c2.38 4.045 4.294 6.411 4.294 11.995s-2.295 9.29-2.295 9.29h-14.81z" stroke="#717171" stroke-miterlimit="1.5" stroke-linecap="round" stroke-linejoin="round"/></svg><svg fill="none" viewBox="0 0 40 40" id="icon_menu5" xmlns="http://www.w3.org/2000/svg"><rect width="40" height="40" rx="20" fill="#fff"/><path clip-rule="evenodd" d="M35.4 17.907l-6.78-6.78a5.796 5.796 0 00-8.193 0L4.531 27.024l1.793 1.793L21.98 13.163a3.599 3.599 0 015.089 0l6.538 6.538 1.794-1.794z" stroke="#717171" stroke-miterlimit="1.5" stroke-linecap="round" stroke-linejoin="round"/><path d="M24.493 9.43v2.675M25.733 9.574l-.476 2.597M26.917 9.956l-.935 2.446M27.97 10.584l-1.345 2.19M28.865 11.374l-1.698 1.814M23.752 12.17l-.624-2.552M23.128 12.402l-1.284-2.285M22.414 12.775l-1.77-1.826" stroke="#717171" stroke-miterlimit="1.5" stroke-linecap="round" stroke-linejoin="round"/></svg><svg fill="none" viewBox="0 0 40 40" id="icon_menu6" xmlns="http://www.w3.org/2000/svg"><rect width="40" height="40" rx="20" fill="#fff"/><path clip-rule="evenodd" d="M30.51 14.706c0-.952-.772-1.723-1.724-1.723H11.224c-.952 0-1.724.771-1.724 1.723v1.09a.757.757 0 00.756.756h19.498a.756.756 0 00.756-.756v-1.09zM28.546 16.552H11.465l1.946 17.133c.078.688.66 1.208 1.352 1.208h10.484c.693 0 1.275-.52 1.353-1.208l1.946-17.133z" stroke="#717171" stroke-miterlimit="1.5" stroke-linecap="round" stroke-linejoin="round"/><path d="M11.464 12.983c0-4.35 3.827-7.883 8.54-7.883 4.715 0 8.541 3.532 8.541 7.883" stroke="#717171" stroke-miterlimit="1.5" stroke-linecap="round" stroke-linejoin="round"/><path d="M23.459 5.771c0 .974-1.548 1.766-3.453 1.766-1.905 0-3.453-.792-3.453-1.766" stroke="#717171" stroke-miterlimit="1.5" stroke-linecap="round" stroke-linejoin="round"/></svg><svg fill="none" viewBox="0 0 40 40" id="icon_menu7" xmlns="http://www.w3.org/2000/svg"><rect width="40" height="40" rx="20" fill="#fff"/><path clip-rule="evenodd" d="M32.224 24.452a1.726 1.726 0 00-1.723-1.724H9.523A1.724 1.724 0 007.8 24.452v2.015a.76.76 0 00.756.757h22.912a.758.758 0 00.756-.756v-2.016z" stroke="#717171" stroke-miterlimit="1.5" stroke-linecap="round" stroke-linejoin="round"/><path d="M10.083 22.728c0-5.48 4.45-9.928 9.929-9.928 5.48 0 9.928 4.449 9.928 9.928" stroke="#717171" stroke-miterlimit="1.5" stroke-linecap="round" stroke-linejoin="round"/><path d="M24.026 13.645c0 1.228-1.8 2.224-4.013 2.224-2.216 0-4.015-.996-4.015-2.224" stroke="#717171" stroke-miterlimit="1.5" stroke-linecap="round" stroke-linejoin="round"/></svg><svg fill="none" viewBox="0 0 40 40" id="icon_menu8" xmlns="http://www.w3.org/2000/svg"><rect width="40" height="40" rx="20" fill="#fff"/><path clip-rule="evenodd" d="M22.093 17.943c2.159-.238 4.318-.837 6.477-1.801H32l-2.046 17.044h-19.93L7.98 16.142h3.294c2.126.937 4.253 1.534 6.38 1.784a2.223 2.223 0 004.44.017z" stroke="#717171" stroke-miterlimit="1.5" stroke-linecap="round" stroke-linejoin="round"/><path d="M11.306 16.142l1.274 17.044M28.57 16.142l-1.274 17.044M32 16.142a9.265 9.265 0 00-9.265-9.265h-5.491a9.265 9.265 0 00-9.265 9.265" stroke="#717171" stroke-miterlimit="1.5" stroke-linecap="round" stroke-linejoin="round"/></svg><svg fill="none" viewBox="0 0 40 40" id="icon_menu9" xmlns="http://www.w3.org/2000/svg"><rect width="40" height="40" rx="20" fill="#fff"/><path clip-rule="evenodd" d="M31.963 30.438a.471.471 0 00-.472-.47H5.381c-.26 0-.47.21-.47.47v4.652c0 .26.21.47.47.47h26.11c.26 0 .472-.21.472-.47v-4.652z" stroke="#717171" stroke-miterlimit="1.5" stroke-linecap="round" stroke-linejoin="round"/><path d="M35.204 24.374H8.15v5.593h27.053v-5.593z" stroke="#717171" stroke-miterlimit="1.5" stroke-linecap="round" stroke-linejoin="round"/><path clip-rule="evenodd" d="M31.753 19.252a.471.471 0 00-.471-.471H5.172c-.26 0-.472.21-.472.47v4.652c0 .26.211.47.471.47h26.11c.26 0 .472-.21.472-.47v-4.651z" stroke="#717171" stroke-miterlimit="1.5" stroke-linecap="round" stroke-linejoin="round"/><path d="M14.098 18.78l1.243 2.044h6.437l1.19-1.989M14.821 7.624l.403.59c.36.528.319 1.231-.1 1.713l-.033.038a2.043 2.043 0 00.034 2.717h0c.28.306.35.75.179 1.128l-.483 1.063M19.69 4.4l.402.591c.36.528.319 1.23-.1 1.713l-.032.037a2.043 2.043 0 00.033 2.717h0c.28.307.35.75.18 1.128l-.484 1.064M24.558 9.202s.19.276.404.591a1.405 1.405 0 01-.133 1.75 2.043 2.043 0 00.034 2.717h0c.28.307.35.75.178 1.128l-.483 1.063" stroke="#717171" stroke-miterlimit="1.5" stroke-linecap="round" stroke-linejoin="round"/><path clip-rule="evenodd" d="M35.204 24.845a.471.471 0 00-.471-.471H8.623c-.26 0-.472.21-.472.471v4.651c0 .26.211.471.472.471h26.11c.26 0 .47-.21.47-.47v-4.652z" stroke="#717171" stroke-miterlimit="1.5" stroke-linecap="round" stroke-linejoin="round"/></svg><svg fill="none" viewBox="0 0 15 16" id="info" xmlns="http://www.w3.org/2000/svg"><path d="M7.5 7.722v3.007m0 2.771a5.5 5.5 0 110-11 5.5 5.5 0 010 11zm.03-7.944v.06h-.06v-.06h.06z" stroke="#28A745" stroke-width="1.5" stroke-linecap="round" stroke-linejoin="round"/></svg><svg fill="none" viewBox="0 0 25 24" id="like" xmlns="http://www.w3.org/2000/svg"><path d="M7.75 3C5.127 3 3 5.113 3 7.719c0 2.104.831 7.097 9.014 12.145a.938.938 0 00.972 0C21.17 14.816 22 9.823 22 7.719 22 5.113 19.873 3 17.25 3S12.5 5.86 12.5 5.86 10.373 3 7.75 3z" fill="currentColor" stroke="#28A745" stroke-linecap="round" stroke-linejoin="round"/></svg><svg fill="none" viewBox="0 0 14 15" id="location" xmlns="http://www.w3.org/2000/svg"><path d="M7.581 12.86a.887.887 0 01-1.162 0c-1.25-1.07-4.086-3.799-4.086-6.527 0-2.916 2.334-4.666 4.667-4.666 2.333 0 4.667 1.75 4.667 4.666 0 2.728-2.835 5.456-4.086 6.527zM7 8.083a1.75 1.75 0 100-3.5 1.75 1.75 0 000 3.5z" fill="#28A745"/></svg><svg fill="none" viewBox="0 0 11 13" id="location_outline" xmlns="http://www.w3.org/2000/svg"><path d="M6.679 11.421a1.647 1.647 0 01-2.358 0C2.988 10.086 1 7.693 1 5.3 1 2.3 3.25.5 5.5.5S10 2.3 10 5.3c0 2.393-1.988 4.786-3.321 6.121zM5.5 7.1c.448 0 .877-.19 1.193-.527.317-.338.495-.796.495-1.273 0-.477-.178-.935-.495-1.273A1.636 1.636 0 005.5 3.5c-.448 0-.877.19-1.193.527A1.863 1.863 0 003.812 5.3c0 .477.178.935.495 1.273.316.337.745.527 1.193.527z" stroke="#28A745" stroke-linejoin="round"/></svg><svg fill="none" viewBox="0 0 25 24" id="mail" xmlns="http://www.w3.org/2000/svg"><path d="M23.712 5.805a2.207 2.207 0 00-1.92-1.114H3.46c-.816 0-1.528.442-1.91 1.1" stroke="#28A745" stroke-miterlimit="1.5" stroke-linecap="round" stroke-linejoin="round"/><path d="M1.55 5.791l11.182 8.841 10.98-8.827" stroke="#28A745" stroke-miterlimit="1.5" stroke-linecap="round" stroke-linejoin="round"/><path d="M1.253 10.201v7.639c0 1.22.988 2.207 2.207 2.207h18.332c1.22 0 2.208-.988 2.208-2.207V10.2" stroke="#28A745" stroke-miterlimit="1.5" stroke-linecap="round" stroke-linejoin="round"/></svg><svg fill="none" viewBox="0 0 12 11" id="minus" xmlns="http://www.w3.org/2000/svg"><path d="M11 5.167H1" stroke="#333" stroke-linecap="round"/></svg><svg fill="none" viewBox="0 0 55 20" id="mwi" xmlns="http://www.w3.org/2000/svg"><path d="M9.371 1.416a.7.7 0 00.694-.709A.7.7 0 009.371 0a.7.7 0 00-.694.708.7.7 0 00.694.709zM24.277 12.162h-1.72L24.882-.001l3.85 8.785L32.623 0l2.09 12.163h-1.72l-1.126-6.815-3.217 6.927-3.195-6.94-1.175 6.828h-.003zM35.607.114h1.833l2.921 7.573 2.985-7.688 2.886 7.688 3.02-7.563h1.833l-4.953 12.035-2.886-8.015-2.92 8.015L35.606.114zM53.303-.001H55v12.163h-1.697V-.001z" fill="currentColor"/><path fill-rule="evenodd" clip-rule="evenodd" d="M23.944 19c.41 0 .68-.19.768-.342v.303h.397V15.41h-.397v1.212c-.149-.151-.384-.253-.743-.253-.68 0-1.248.543-1.248 1.328 0 .784.506 1.301 1.226 1.301l-.003.004zm.768-1.894v1.025c-.1.2-.346.48-.72.48-.494 0-.855-.342-.855-.922 0-.58.41-.936.878-.936.322 0 .545.125.694.353h.003zM26.32 15.598a.242.242 0 00-.248-.24c-.149 0-.262.102-.262.24 0 .152.113.254.262.254a.245.245 0 00.248-.254zm-.061.821h-.397v2.54h.397v-2.54zM28.15 19.977c.633 0 1.114-.353 1.114-1.213v-2.353h-.41v.228c-.113-.139-.37-.277-.742-.277-.68 0-1.24.494-1.24 1.315 0 .82.495 1.315 1.24 1.315.42 0 .594-.126.755-.317v.152c0 .468-.248.745-.73.745-.396 0-.632-.192-.729-.38l-.358.165c.136.38.559.62 1.1.62zm.72-2.857v1.025a.71.71 0 01-.693.468c-.533 0-.878-.343-.878-.923 0-.58.41-.936.878-.936.335 0 .58.165.694.366zM30.48 15.598a.242.242 0 00-.248-.24c-.149 0-.261.102-.261.24 0 .152.112.254.26.254a.245.245 0 00.25-.254zm-.06.821h-.398v2.54h.397v-2.54z" fill="currentColor"/><path d="M30.915 16.422h.52v-.646h.397v.646h.855v.392h-.855v1.114c0 .504.135.669.432.669.174 0 .31-.076.445-.178l.184.303c-.148.165-.397.267-.706.267-.484 0-.755-.33-.755-.962v-1.213h-.52v-.392h.003z" fill="currentColor"/><path fill-rule="evenodd" clip-rule="evenodd" d="M34.283 16.357c-.358 0-.755.152-.991.366l.197.303c.235-.178.458-.276.742-.276.52 0 .668.303.668.757a2.606 2.606 0 00-.58-.075c-.717 0-1.188.227-1.188.784 0 .468.358.771.903.771.433 0 .72-.191.868-.405v.379h.397v-1.582c0-.646-.345-1.025-1.016-1.025v.003zm.62 1.516v.254a.866.866 0 01-.782.494c-.335 0-.568-.151-.568-.418 0-.303.31-.406.817-.406.197 0 .41.037.532.076z" fill="currentColor"/><path d="M36.013 15.397h.397v3.566h-.397v-3.566z" fill="currentColor"/><path fill-rule="evenodd" clip-rule="evenodd" d="M39.681 16.357c-.358 0-.755.152-.99.366l.196.303c.236-.178.459-.276.743-.276.52 0 .668.303.668.757a2.604 2.604 0 00-.581-.075c-.717 0-1.188.227-1.188.784 0 .468.358.771.904.771.432 0 .716-.191.865-.405v.379h.397v-1.582c0-.646-.346-1.025-1.017-1.025l.003.003zm.62 1.516v.254a.867.867 0 01-.781.494c-.333 0-.568-.151-.568-.418 0-.303.31-.406.816-.406.197 0 .41.037.533.076zM42.514 19.977c.633 0 1.113-.353 1.113-1.213v-2.353h-.41v.228c-.112-.139-.37-.277-.742-.277-.68 0-1.239.494-1.239 1.315 0 .82.497 1.315 1.24 1.315.419 0 .593-.126.755-.317v.152c0 .468-.249.745-.73.745-.397 0-.632-.192-.73-.38l-.357.165c.135.38.558.62 1.1.62zm.707-2.857v1.025a.687.687 0 01-.694.468c-.532 0-.878-.343-.878-.923 0-.58.41-.936.878-.936.336 0 .58.165.694.366zM45.512 19.013c.41 0 .755-.178.99-.531l-.26-.24a.896.896 0 01-.72.378c-.507 0-.878-.276-.904-.797h1.956c.025-.115.025-.214.025-.303 0-.709-.497-1.15-1.152-1.15-.83 0-1.262.58-1.262 1.328 0 .797.533 1.315 1.327 1.315zm.668-1.556h-1.572c.061-.418.358-.722.817-.708.445 0 .729.253.755.708z" fill="currentColor"/><path d="M47.158 16.423h.397v.33c.161-.254.497-.38.855-.38.646 0 1.004.343 1.004 1.15v1.44h-.397v-1.39c0-.557-.236-.81-.73-.81-.31 0-.593.2-.729.517v1.68h-.397v-2.54l-.003.003zM52.308 18.435c-.184.365-.632.57-1.026.57-.794 0-1.323-.518-1.323-1.315 0-.745.52-1.328 1.3-1.328.446 0 .843.2 1.004.517l-.31.214c-.174-.24-.384-.342-.694-.342-.506 0-.89.392-.89.936 0 .543.37.935.942.935a.803.803 0 00.694-.392l.31.201-.007.004zM52.942 19.57c.036.013.062.026.1.026.184 0 .31-.125.484-.53l.075-.191-1.2-2.439h.47l.93 1.921.707-1.921h.432l-.942 2.505c-.336.86-.594 1.06-.943 1.06a.634.634 0 01-.27-.062l.16-.366-.003-.003zM15.427 12.148h2.71l.62-1.061h-4.05l-1.772 5.032-1.126-2.073-1.92 3.579V2.31h-1.04v17.535h1.04l1.92-3.744 1.188 2.541.284-.77.248-.657" fill="currentColor"/><path d="M3.328 10.01H.605l-.607 1.06h4.05L5.82 6.025l1.113 2.086 1.92-3.579v15.31h1.053V2.312H8.854L6.946 6.055 5.76 3.514l-.284.771h-.013l-.236.646v.013" fill="currentColor"/></svg><svg fill="none" viewBox="0 0 33 32" id="ok" xmlns="http://www.w3.org/2000/svg"><rect x=".665" width="32" height="32" rx="8" fill="#F7962A"/><path d="M16.666 7a4.493 4.493 0 00-3.15 1.287 4.358 4.358 0 00-1.305 3.101 4.358 4.358 0 001.307 3.1 4.493 4.493 0 006.296 0 4.359 4.359 0 001.306-3.1 4.359 4.359 0 00-1.305-3.101A4.494 4.494 0 0016.666 7zm0 2.571c.489 0 .958.192 1.304.533.345.34.54.802.54 1.284a1.807 1.807 0 01-.541 1.283 1.862 1.862 0 01-2.606 0 1.807 1.807 0 01-.541-1.283c0-.482.195-.943.54-1.284a1.86 1.86 0 011.304-.532zm-3.735 6.354c-.28.008-.55.105-.769.275-.22.17-.378.407-.451.672-.074.267-.058.549.044.805.102.257.285.474.522.62.795.494 1.67.85 2.586 1.056l-2.49 2.453a1.275 1.275 0 00.015 1.804 1.316 1.316 0 001.832.014l2.446-2.41 2.448 2.41a1.304 1.304 0 00.922.376 1.32 1.32 0 00.922-.376 1.27 1.27 0 000-1.818l-2.49-2.452a8.411 8.411 0 002.587-1.055 1.295 1.295 0 00.578-.803 1.268 1.268 0 00-.168-.97 1.294 1.294 0 00-.815-.57 1.326 1.326 0 00-.985.166c-.9.553-1.938.847-2.999.847-1.06 0-2.1-.294-2.998-.847a1.31 1.31 0 00-.737-.197z" fill="#fff"/></svg><svg fill="none" viewBox="0 0 20 21" id="pencil" xmlns="http://www.w3.org/2000/svg"><path d="M12.034 5.317L3.499 13.85a1.667 1.667 0 00-.471.937l-.461 3.145 3.146-.46c.355-.053.684-.218.937-.472l8.534-8.533m-3.15-3.15l1.857-1.859a1.333 1.333 0 011.886 0l1.265 1.265a1.334 1.334 0 010 1.886l-1.858 1.858m-3.15-3.15l3.15 3.15" stroke="#000" stroke-opacity=".3" stroke-width="1.5" stroke-linecap="round" stroke-linejoin="round"/></svg><svg fill="none" viewBox="0 0 24 24" id="phone" xmlns="http://www.w3.org/2000/svg"><path d="M22.759 17.473l-.99 4.29a1.323 1.323 0 01-1.296 1.03C9.734 22.794 1 14.06 1 3.32c0-.624.424-1.158 1.03-1.296l4.291-.99a1.336 1.336 0 011.523.772l1.98 4.618a1.332 1.332 0 01-.382 1.551l-2.291 1.84a14.882 14.882 0 006.789 6.79l1.876-2.29a1.324 1.324 0 011.552-.383l4.618 1.98c.556.292.918.94.773 1.56z" stroke="#28A745" stroke-miterlimit="2" stroke-linejoin="round"/></svg><svg fill="none" viewBox="0 0 11 14" id="play" xmlns="http://www.w3.org/2000/svg"><path d="M11 7L.5 13.062V.938L11 7z" fill="#28A745"/></svg><svg fill="none" viewBox="0 0 12 12" id="plus" xmlns="http://www.w3.org/2000/svg"><path d="M6 1.167v10M11 6.167H1" stroke="#333" stroke-linecap="round"/></svg><svg fill="none" viewBox="0 0 17 18" id="search" xmlns="http://www.w3.org/2000/svg"><path d="M7.69 14.667a6.476 6.476 0 100-12.953 6.476 6.476 0 000 12.953zM15.786 16.286l-3.481-3.481" stroke="currentColor" stroke-linecap="round" stroke-linejoin="round"/></svg><svg fill="none" viewBox="0 0 26 26" id="share" xmlns="http://www.w3.org/2000/svg"><path d="M14.083 4.333v4.334C6.96 9.78 4.312 16.02 3.25 21.667c-.04.223 5.833-6.46 10.833-6.5V19.5l8.667-7.583-8.667-7.584z" stroke="#28A745" stroke-width="1.5" stroke-linecap="round" stroke-linejoin="round"/></svg><svg fill="none" viewBox="0 0 16 17" id="trash" xmlns="http://www.w3.org/2000/svg"><path d="M5.75 4.75v-2.5h4.5v2.5m-6.5 1v9h8.5v-9m-9.5-.5h10.5" stroke="#28A745" stroke-linecap="round" stroke-linejoin="round"/></svg><svg fill="none" viewBox="0 0 25 24" id="user" xmlns="http://www.w3.org/2000/svg"><path d="M19.5 20.75a1 1 0 001-1v-1.246c.004-2.806-3.974-5.004-8-5.004s-8 2.198-8 5.004v1.246a1 1 0 001 1h14zM16.104 6.854a3.604 3.604 0 11-7.209 0 3.604 3.604 0 017.209 0z" stroke="#28A745" stroke-linecap="round" stroke-linejoin="round"/></svg><svg fill="none" viewBox="0 0 33 32" id="vk" xmlns="http://www.w3.org/2000/svg"><rect x=".665" width="32" height="32" rx="8" fill="#577FA8"/><g clip-path="url(#cjclip0_2001_1340)"><path fill-rule="evenodd" clip-rule="evenodd" d="M26.207 10.957c.138-.456 0-.79-.663-.79h-2.187c-.557 0-.813.289-.953.608 0 0-1.112 2.663-2.688 4.393-.51.502-.742.661-1.02.661-.14 0-.348-.16-.348-.615v-4.258c0-.546-.154-.79-.617-.79h-3.44c-.348 0-.557.254-.557.495 0 .517.789.637.87 2.094v3.165c0 .694-.128.82-.406.82-.742 0-2.546-2.676-3.617-5.738-.207-.596-.417-.836-.977-.836H7.415c-.625 0-.75.29-.75.609 0 .568.742 3.391 3.454 7.126 1.809 2.55 4.354 3.932 6.674 3.932 1.39 0 1.562-.306 1.562-.836V19.07c0-.614.132-.737.573-.737.325 0 .88.16 2.179 1.39 1.483 1.457 1.727 2.11 2.562 2.11h2.188c.625 0 .938-.306.758-.913-.198-.604-.906-1.48-1.846-2.519-.51-.591-1.275-1.229-1.507-1.548-.324-.409-.232-.591 0-.956 0 0 2.666-3.688 2.944-4.94" fill="#fff"/></g><defs><clipPath id="cjclip0_2001_1340"><path fill="#fff" transform="translate(6.665 6)" d="M0 0h20v20H0z"/></clipPath></defs></svg><svg fill="none" viewBox="0 0 33 32" id="x" xmlns="http://www.w3.org/2000/svg"><rect x=".665" width="32" height="32" rx="8" fill="#2F2F2F"/><g clip-path="url(#ckclip0_2001_1343)"><mask id="cka" style="mask-type:luminance" maskUnits="userSpaceOnUse" x="6" y="6" width="21" height="20"><path d="M6.665 6h20v20h-20V6z" fill="#fff"/></mask><g mask="url(#cka)"><path d="M21.634 8.5h2.428l-5.304 6.078 6.24 8.271h-4.885l-3.83-5.015-4.376 5.015h-2.43l5.672-6.503-5.984-7.845h5.01l3.456 4.584L21.634 8.5zm-.854 12.893h1.346L13.44 9.88h-1.443l8.783 11.512z" fill="#fff"/></g></g><defs><clipPath id="ckclip0_2001_1343"><path fill="#fff" transform="translate(6.665 6)" d="M0 0h20v20H0z"/></clipPath></defs></svg></svg>